<svg xmlns="http://www.w3.org/2000/svg" xmlns:xlink="http://www.w3.org/1999/xlink" viewBox="0,0,256,256" width="64px" height="64px" fill-rule="nonzero"><defs><linearGradient x1="32.526" y1="16.627" x2="32.526" y2="56.834" gradientUnits="userSpaceOnUse" id="color-1"><stop offset="0" stop-color="#ffffff"></stop><stop offset="1" stop-color="#ffffff"></stop></linearGradient><linearGradient x1="32" y1="6" x2="32" y2="58" gradientUnits="userSpaceOnUse" id="color-2"><stop offset="0" stop-color="#ffffff"></stop><stop offset="1" stop-color="#ffffff"></stop></linearGradient></defs><g fill="none" fill-rule="nonzero" stroke="none" stroke-width="none" stroke-linecap="butt" stroke-linejoin="miter" stroke-miterlimit="10" stroke-dasharray="" stroke-dashoffset="0" font-family="none" font-weight="none" font-size="none" text-anchor="none" style="mix-blend-mode: normal"><g transform="scale(4,4)"><path d="M35.52,38.891h6.729l1.057,-6.835h-7.786v-3.736c0,-2.839 0.928,-5.358 3.584,-5.358h4.268v-5.966c-0.75,-0.101 -2.335,-0.323 -5.332,-0.323c-6.258,0 -9.926,3.305 -9.926,10.834v4.548h-6.433v6.835h6.433v17.788c1.271,0.191 2.562,0.322 3.886,0.322c1.197,0 2.366,-0.109 3.52,-0.266z" fill="url(#color-1)" stroke="none" stroke-width="1"></path><path d="M32,7c-13.80712,0 -25,11.19288 -25,25c0,13.80712 11.19288,25 25,25c13.80712,0 25,-11.19288 25,-25c0,-13.80712 -11.19288,-25 -25,-25z" fill="none" stroke="url(#color-2)" stroke-width="2"></path></g></g></svg>