<svg xmlns="http://www.w3.org/2000/svg" xmlns:xlink="http://www.w3.org/1999/xlink" viewBox="0,0,256,256" width="64px" height="64px" fill-rule="nonzero"><defs><linearGradient x1="32" y1="16.25" x2="32" y2="48.312" gradientUnits="userSpaceOnUse" id="color-1"><stop offset="0" stop-color="#ffffff"></stop><stop offset="1" stop-color="#ffffff"></stop></linearGradient><linearGradient x1="32" y1="5.25" x2="32" y2="59.38" gradientUnits="userSpaceOnUse" id="color-2"><stop offset="0" stop-color="#ffffff"></stop><stop offset="1" stop-color="#ffffff"></stop></linearGradient></defs><g fill="none" fill-rule="nonzero" stroke="none" stroke-width="1" stroke-linecap="butt" stroke-linejoin="miter" stroke-miterlimit="10" stroke-dasharray="" stroke-dashoffset="0" font-family="none" font-weight="none" font-size="none" text-anchor="none" style="mix-blend-mode: normal"><g transform="scale(4,4)"><path d="M26.064,45.003c12.076,0 18.68,-10.005 18.68,-18.68c0,-0.284 -0.006,-0.567 -0.019,-0.849c1.282,-0.927 2.396,-2.083 3.275,-3.399c-1.176,0.523 -2.442,0.875 -3.77,1.034c1.355,-0.813 2.396,-2.099 2.887,-3.632c-1.269,0.752 -2.673,1.299 -4.169,1.594c-1.198,-1.276 -2.904,-2.074 -4.792,-2.074c-3.626,0 -6.566,2.94 -6.566,6.565c0,0.515 0.058,1.016 0.17,1.497c-5.456,-0.274 -10.295,-2.887 -13.532,-6.859c-0.564,0.97 -0.889,2.097 -0.889,3.3c0,2.278 1.159,4.289 2.922,5.465c-1.077,-0.033 -2.089,-0.329 -2.974,-0.821c-0.001,0.027 -0.001,0.055 -0.001,0.084c0,3.18 2.263,5.834 5.267,6.436c-0.551,0.15 -1.132,0.231 -1.731,0.231c-0.423,0 -0.834,-0.042 -1.234,-0.118c0.836,2.608 3.259,4.506 6.133,4.56c-2.247,1.761 -5.078,2.81 -8.154,2.81c-0.53,0 -1.052,-0.03 -1.566,-0.091c2.905,1.86 6.355,2.947 10.063,2.947" fill="url(#color-1)"></path><path d="M32,58c-14.337,0 -26,-11.663 -26,-26c0,-14.337 11.663,-26 26,-26c14.337,0 26,11.663 26,26c0,14.337 -11.663,26 -26,26zM32,8c-13.233,0 -24,10.767 -24,24c0,13.233 10.767,24 24,24c13.233,0 24,-10.767 24,-24c0,-13.233 -10.767,-24 -24,-24z" fill="url(#color-2)"></path></g></g></svg>